<svg width="300" height="50" viewBox="0 0 300 50" fill="none" xmlns="http://www.w3.org/2000/svg">
<rect width="300" height="50" rx="8" fill="#3DE383"/>
<path d="M80.1168 22.6562H76.3839C76.3157 22.1733 76.1765 21.7443 75.9663 21.3693C75.756 20.9886 75.4862 20.6648 75.1566 20.3977C74.8271 20.1307 74.4464 19.9261 74.0146 19.7841C73.5884 19.642 73.1254 19.571 72.6254 19.571C71.7219 19.571 70.935 19.7955 70.2646 20.2443C69.5941 20.6875 69.0742 21.3352 68.7049 22.1875C68.3356 23.0341 68.1509 24.0625 68.1509 25.2727C68.1509 26.517 68.3356 27.5625 68.7049 28.4091C69.0799 29.2557 69.6026 29.8949 70.2731 30.3267C70.9435 30.7585 71.7191 30.9744 72.5998 30.9744C73.0941 30.9744 73.5515 30.9091 73.9719 30.7784C74.3981 30.6477 74.7759 30.4574 75.1055 30.2074C75.435 29.9517 75.7077 29.642 75.9237 29.2784C76.1452 28.9148 76.2987 28.5 76.3839 28.0341L80.1168 28.0511C80.0202 28.8523 79.7788 29.625 79.3924 30.3693C79.0117 31.108 78.4975 31.7699 77.8498 32.3551C77.2077 32.9347 76.4407 33.3949 75.5487 33.7358C74.6623 34.071 73.6594 34.2386 72.5401 34.2386C70.9833 34.2386 69.5913 33.8864 68.364 33.1818C67.1424 32.4773 66.1765 31.4574 65.4663 30.1222C64.7617 28.7869 64.4094 27.1705 64.4094 25.2727C64.4094 23.3693 64.7674 21.75 65.4833 20.4148C66.1992 19.0795 67.1708 18.0625 68.3981 17.3636C69.6254 16.6591 71.006 16.3068 72.5401 16.3068C73.5515 16.3068 74.489 16.4489 75.3526 16.733C76.2219 17.017 76.9918 17.4318 77.6623 17.9773C78.3327 18.517 78.8782 19.179 79.2987 19.9631C79.7248 20.7472 79.9975 21.6449 80.1168 22.6562ZM88.6097 34.2557C87.2859 34.2557 86.141 33.9744 85.1751 33.4119C84.2148 32.8437 83.4734 32.054 82.9506 31.0426C82.4279 30.0256 82.1665 28.8466 82.1665 27.5057C82.1665 26.1534 82.4279 24.9716 82.9506 23.9602C83.4734 22.9432 84.2148 22.1534 85.1751 21.5909C86.141 21.0227 87.2859 20.7386 88.6097 20.7386C89.9336 20.7386 91.0756 21.0227 92.0359 21.5909C93.0018 22.1534 93.7461 22.9432 94.2688 23.9602C94.7915 24.9716 95.0529 26.1534 95.0529 27.5057C95.0529 28.8466 94.7915 30.0256 94.2688 31.0426C93.7461 32.054 93.0018 32.8437 92.0359 33.4119C91.0756 33.9744 89.9336 34.2557 88.6097 34.2557ZM88.6268 31.4432C89.229 31.4432 89.7319 31.2727 90.1353 30.9318C90.5387 30.5852 90.8427 30.1136 91.0472 29.517C91.2575 28.9205 91.3626 28.2415 91.3626 27.4801C91.3626 26.7188 91.2575 26.0398 91.0472 25.4432C90.8427 24.8466 90.5387 24.375 90.1353 24.0284C89.7319 23.6818 89.229 23.5085 88.6268 23.5085C88.0188 23.5085 87.5075 23.6818 87.0927 24.0284C86.6836 24.375 86.3739 24.8466 86.1637 25.4432C85.9592 26.0398 85.8569 26.7188 85.8569 27.4801C85.8569 28.2415 85.9592 28.9205 86.1637 29.517C86.3739 30.1136 86.6836 30.5852 87.0927 30.9318C87.5075 31.2727 88.0188 31.4432 88.6268 31.4432ZM101.044 26.4318V34H97.4137V20.9091H100.874V23.2188H101.027C101.317 22.4574 101.803 21.8551 102.485 21.4119C103.167 20.9631 103.993 20.7386 104.965 20.7386C105.874 20.7386 106.667 20.9375 107.343 21.3352C108.019 21.733 108.544 22.3011 108.919 23.0398C109.294 23.7727 109.482 24.6477 109.482 25.6648V34H105.851V26.3125C105.857 25.5114 105.652 24.8864 105.238 24.4375C104.823 23.983 104.252 23.7557 103.525 23.7557C103.036 23.7557 102.604 23.8608 102.229 24.071C101.86 24.2812 101.57 24.5881 101.36 24.9915C101.155 25.3892 101.05 25.8693 101.044 26.4318ZM119.383 20.9091V23.6364H111.304V20.9091H119.383ZM113.153 34V19.9631C113.153 19.0142 113.338 18.2273 113.707 17.6023C114.082 16.9773 114.593 16.5085 115.241 16.196C115.889 15.8835 116.625 15.7273 117.449 15.7273C118.005 15.7273 118.514 15.7699 118.974 15.8551C119.44 15.9403 119.787 16.017 120.014 16.0852L119.366 18.8125C119.224 18.767 119.048 18.7244 118.838 18.6847C118.633 18.6449 118.423 18.625 118.207 18.625C117.673 18.625 117.301 18.75 117.091 19C116.88 19.2443 116.775 19.5881 116.775 20.0312V34H113.153ZM121.601 34V20.9091H125.232V34H121.601ZM123.425 19.2216C122.885 19.2216 122.422 19.0426 122.036 18.6847C121.655 18.321 121.465 17.8864 121.465 17.3807C121.465 16.8807 121.655 16.4517 122.036 16.0938C122.422 15.7301 122.885 15.5483 123.425 15.5483C123.965 15.5483 124.425 15.7301 124.806 16.0938C125.192 16.4517 125.385 16.8807 125.385 17.3807C125.385 17.8864 125.192 18.321 124.806 18.6847C124.425 19.0426 123.965 19.2216 123.425 19.2216ZM134.038 39.1818C132.862 39.1818 131.853 39.0199 131.012 38.696C130.177 38.3778 129.512 37.9432 129.018 37.392C128.524 36.8409 128.203 36.2216 128.055 35.5341L131.413 35.0824C131.515 35.3438 131.677 35.5881 131.899 35.8153C132.12 36.0426 132.413 36.2244 132.777 36.3608C133.146 36.5028 133.595 36.5739 134.123 36.5739C134.913 36.5739 135.564 36.3807 136.075 35.9943C136.592 35.6136 136.85 34.9744 136.85 34.0767V31.6818H136.697C136.538 32.0455 136.299 32.3892 135.981 32.7131C135.663 33.0369 135.254 33.3011 134.754 33.5057C134.254 33.7102 133.657 33.8125 132.964 33.8125C131.981 33.8125 131.086 33.5852 130.279 33.1307C129.478 32.6705 128.839 31.9687 128.362 31.0256C127.89 30.0767 127.654 28.8778 127.654 27.429C127.654 25.946 127.896 24.7074 128.379 23.7131C128.862 22.7187 129.504 21.9744 130.305 21.4801C131.112 20.9858 131.995 20.7386 132.956 20.7386C133.689 20.7386 134.302 20.8636 134.797 21.1136C135.291 21.358 135.689 21.6648 135.99 22.0341C136.297 22.3977 136.532 22.7557 136.697 23.108H136.833V20.9091H140.439V34.1278C140.439 35.2415 140.166 36.1733 139.62 36.9233C139.075 37.6733 138.319 38.2358 137.353 38.6108C136.393 38.9915 135.288 39.1818 134.038 39.1818ZM134.115 31.0852C134.7 31.0852 135.194 30.9403 135.598 30.6506C136.007 30.3551 136.319 29.9347 136.535 29.3892C136.757 28.8381 136.868 28.179 136.868 27.4119C136.868 26.6449 136.76 25.9801 136.544 25.4176C136.328 24.8494 136.015 24.4091 135.606 24.0966C135.197 23.7841 134.7 23.6278 134.115 23.6278C133.518 23.6278 133.015 23.7898 132.606 24.1136C132.197 24.4318 131.887 24.875 131.677 25.4432C131.467 26.0114 131.362 26.6676 131.362 27.4119C131.362 28.1676 131.467 28.821 131.677 29.3722C131.893 29.9176 132.203 30.3409 132.606 30.642C133.015 30.9375 133.518 31.0852 134.115 31.0852ZM151.723 28.4261V20.9091H155.353V34H151.868V31.6222H151.731C151.436 32.3892 150.944 33.0057 150.257 33.4716C149.575 33.9375 148.743 34.1705 147.76 34.1705C146.885 34.1705 146.115 33.9716 145.45 33.5739C144.785 33.1761 144.265 32.6108 143.89 31.8778C143.521 31.1449 143.333 30.267 143.328 29.2443V20.9091H146.958V28.5966C146.964 29.3693 147.172 29.9801 147.581 30.429C147.99 30.8778 148.538 31.1023 149.225 31.1023C149.663 31.1023 150.072 31.0028 150.453 30.804C150.833 30.5994 151.14 30.2983 151.373 29.9006C151.612 29.5028 151.728 29.0114 151.723 28.4261ZM158.257 34V20.9091H161.777V23.1932H161.914C162.152 22.3807 162.553 21.767 163.115 21.3523C163.678 20.9318 164.326 20.7216 165.059 20.7216C165.24 20.7216 165.436 20.733 165.647 20.7557C165.857 20.7784 166.042 20.8097 166.201 20.8494V24.071C166.03 24.0199 165.794 23.9744 165.493 23.9347C165.192 23.8949 164.917 23.875 164.667 23.875C164.132 23.875 163.655 23.9915 163.235 24.2244C162.82 24.4517 162.49 24.7699 162.246 25.179C162.007 25.5881 161.888 26.0597 161.888 26.5938V34H158.257ZM171.436 34.2472C170.6 34.2472 169.856 34.1023 169.203 33.8125C168.549 33.517 168.032 33.0824 167.652 32.5085C167.277 31.929 167.089 31.2074 167.089 30.3438C167.089 29.6165 167.223 29.0057 167.49 28.5114C167.757 28.017 168.12 27.6193 168.581 27.3182C169.041 27.017 169.564 26.7898 170.149 26.6364C170.74 26.483 171.359 26.375 172.007 26.3125C172.768 26.233 173.382 26.1591 173.848 26.0909C174.314 26.017 174.652 25.9091 174.862 25.767C175.072 25.625 175.177 25.4148 175.177 25.1364V25.0852C175.177 24.5455 175.007 24.1278 174.666 23.8324C174.331 23.5369 173.853 23.3892 173.234 23.3892C172.581 23.3892 172.061 23.5341 171.674 23.8239C171.288 24.108 171.032 24.4659 170.907 24.8977L167.549 24.625C167.72 23.8295 168.055 23.142 168.555 22.5625C169.055 21.9773 169.7 21.5284 170.49 21.2159C171.285 20.8977 172.206 20.7386 173.251 20.7386C173.978 20.7386 174.674 20.8239 175.339 20.9943C176.01 21.1648 176.603 21.429 177.12 21.7869C177.643 22.1449 178.055 22.6051 178.356 23.1676C178.657 23.7244 178.808 24.392 178.808 25.1705V34H175.365V32.1847H175.262C175.052 32.5938 174.771 32.9545 174.419 33.267C174.066 33.5739 173.643 33.8153 173.149 33.9915C172.654 34.1619 172.083 34.2472 171.436 34.2472ZM172.475 31.7415C173.01 31.7415 173.481 31.6364 173.89 31.4261C174.299 31.2102 174.62 30.9205 174.853 30.5568C175.086 30.1932 175.203 29.7812 175.203 29.321V27.9318C175.089 28.0057 174.933 28.0739 174.734 28.1364C174.541 28.1932 174.322 28.2472 174.078 28.2983C173.833 28.3437 173.589 28.3864 173.345 28.4261C173.1 28.4602 172.879 28.4915 172.68 28.5199C172.254 28.5824 171.882 28.6818 171.564 28.8182C171.245 28.9545 170.998 29.1392 170.822 29.3722C170.646 29.5994 170.558 29.8835 170.558 30.2244C170.558 30.7188 170.737 31.0966 171.095 31.358C171.458 31.6136 171.919 31.7415 172.475 31.7415ZM187.539 34.2557C186.199 34.2557 185.045 33.9716 184.079 33.4034C183.119 32.8295 182.38 32.0341 181.863 31.017C181.352 30 181.096 28.8295 181.096 27.5057C181.096 26.1648 181.355 24.9886 181.872 23.9773C182.395 22.9602 183.136 22.1676 184.096 21.5994C185.056 21.0256 186.199 20.7386 187.522 20.7386C188.664 20.7386 189.664 20.946 190.522 21.3608C191.38 21.7756 192.059 22.358 192.559 23.108C193.059 23.858 193.335 24.7386 193.386 25.75H189.96C189.863 25.0966 189.608 24.571 189.193 24.1733C188.784 23.7699 188.247 23.5682 187.582 23.5682C187.02 23.5682 186.528 23.7216 186.108 24.0284C185.693 24.3295 185.369 24.7699 185.136 25.3494C184.903 25.929 184.787 26.6307 184.787 27.4545C184.787 28.2898 184.9 29 185.127 29.5852C185.36 30.1705 185.687 30.6165 186.108 30.9233C186.528 31.2301 187.02 31.3835 187.582 31.3835C187.997 31.3835 188.369 31.2983 188.699 31.1278C189.034 30.9574 189.309 30.7102 189.525 30.3864C189.747 30.0568 189.892 29.6619 189.96 29.2017H193.386C193.329 30.2017 193.056 31.0824 192.568 31.8438C192.085 32.5994 191.417 33.1903 190.565 33.6165C189.713 34.0426 188.704 34.2557 187.539 34.2557ZM186.687 33.9318H188.358L188.221 34.6733C188.806 34.7642 189.284 34.983 189.653 35.3295C190.028 35.6761 190.218 36.1477 190.224 36.7443C190.23 37.5909 189.838 38.2642 189.048 38.7642C188.258 39.2699 187.15 39.5227 185.724 39.5227L185.69 37.9034C186.406 37.9034 186.966 37.8153 187.369 37.6392C187.778 37.4688 187.991 37.2017 188.008 36.8381C188.02 36.4915 187.886 36.2273 187.608 36.0455C187.329 35.8636 186.895 35.7358 186.304 35.6619L186.687 33.9318ZM201.625 34.2557C200.301 34.2557 199.157 33.9744 198.191 33.4119C197.23 32.8437 196.489 32.054 195.966 31.0426C195.444 30.0256 195.182 28.8466 195.182 27.5057C195.182 26.1534 195.444 24.9716 195.966 23.9602C196.489 22.9432 197.23 22.1534 198.191 21.5909C199.157 21.0227 200.301 20.7386 201.625 20.7386C202.949 20.7386 204.091 21.0227 205.051 21.5909C206.017 22.1534 206.762 22.9432 207.284 23.9602C207.807 24.9716 208.069 26.1534 208.069 27.5057C208.069 28.8466 207.807 30.0256 207.284 31.0426C206.762 32.054 206.017 32.8437 205.051 33.4119C204.091 33.9744 202.949 34.2557 201.625 34.2557ZM201.642 31.4432C202.245 31.4432 202.748 31.2727 203.151 30.9318C203.554 30.5852 203.858 30.1136 204.063 29.517C204.273 28.9205 204.378 28.2415 204.378 27.4801C204.378 26.7188 204.273 26.0398 204.063 25.4432C203.858 24.8466 203.554 24.375 203.151 24.0284C202.748 23.6818 202.245 23.5085 201.642 23.5085C201.034 23.5085 200.523 23.6818 200.108 24.0284C199.699 24.375 199.39 24.8466 199.179 25.4432C198.975 26.0398 198.873 26.7188 198.873 27.4801C198.873 28.2415 198.975 28.9205 199.179 29.517C199.39 30.1136 199.699 30.5852 200.108 30.9318C200.523 31.2727 201.034 31.4432 201.642 31.4432ZM199.188 19.2983L197.168 19.2727C197.168 18.1875 197.435 17.3551 197.969 16.7756C198.509 16.196 199.165 15.9034 199.938 15.8977C200.336 15.8977 200.676 15.9631 200.961 16.0938C201.25 16.2188 201.509 16.3665 201.736 16.5369C201.969 16.7074 202.191 16.858 202.401 16.9886C202.611 17.1136 202.838 17.1761 203.083 17.1761C203.412 17.1705 203.662 17.0483 203.833 16.8097C204.009 16.5653 204.097 16.2472 204.097 15.8551L206.083 15.9148C206.071 16.9886 205.799 17.8182 205.265 18.4034C204.73 18.983 204.08 19.2756 203.313 19.2812C202.887 19.2812 202.529 19.2188 202.239 19.0938C201.955 18.9631 201.705 18.8153 201.489 18.6506C201.273 18.4801 201.063 18.3295 200.858 18.1989C200.654 18.0682 200.424 18.0028 200.168 18.0028C199.873 18.0028 199.634 18.1193 199.452 18.3523C199.276 18.5852 199.188 18.9006 199.188 19.2983ZM216.395 34.2557C215.049 34.2557 213.89 33.983 212.918 33.4375C211.952 32.8864 211.208 32.108 210.685 31.1023C210.162 30.0909 209.901 28.8949 209.901 27.5142C209.901 26.1676 210.162 24.9858 210.685 23.9688C211.208 22.9517 211.944 22.1591 212.892 21.5909C213.847 21.0227 214.966 20.7386 216.25 20.7386C217.114 20.7386 217.918 20.8778 218.662 21.1562C219.412 21.429 220.066 21.8409 220.623 22.392C221.185 22.9432 221.623 23.6364 221.935 24.4716C222.248 25.3011 222.404 26.2727 222.404 27.3864V28.3835H211.35V26.1335H218.986C218.986 25.6108 218.873 25.1477 218.645 24.7443C218.418 24.3409 218.103 24.0256 217.699 23.7983C217.301 23.5653 216.838 23.4489 216.31 23.4489C215.759 23.4489 215.27 23.5767 214.844 23.8324C214.424 24.0824 214.094 24.4205 213.855 24.8466C213.617 25.267 213.495 25.7358 213.489 26.2528V28.392C213.489 29.0398 213.608 29.5994 213.847 30.071C214.091 30.5426 214.435 30.9062 214.878 31.1619C215.321 31.4176 215.847 31.5455 216.455 31.5455C216.858 31.5455 217.228 31.4886 217.563 31.375C217.898 31.2614 218.185 31.0909 218.424 30.8636C218.662 30.6364 218.844 30.358 218.969 30.0284L222.327 30.25C222.157 31.0568 221.807 31.7614 221.279 32.3636C220.756 32.9602 220.08 33.4261 219.25 33.7614C218.426 34.0909 217.475 34.2557 216.395 34.2557ZM235.665 24.642L232.341 24.8466C232.284 24.5625 232.162 24.3068 231.975 24.0795C231.787 23.8466 231.54 23.6619 231.233 23.5256C230.932 23.3835 230.571 23.3125 230.151 23.3125C229.588 23.3125 229.114 23.4318 228.728 23.6705C228.341 23.9034 228.148 24.2159 228.148 24.608C228.148 24.9205 228.273 25.1847 228.523 25.4006C228.773 25.6165 229.202 25.7898 229.81 25.9205L232.179 26.3977C233.452 26.6591 234.401 27.0795 235.026 27.6591C235.651 28.2386 235.963 29 235.963 29.9432C235.963 30.8011 235.711 31.554 235.205 32.2017C234.705 32.8494 234.017 33.3551 233.142 33.7188C232.273 34.0767 231.27 34.2557 230.134 34.2557C228.401 34.2557 227.02 33.8949 225.992 33.1733C224.969 32.446 224.37 31.4574 224.194 30.2074L227.765 30.0199C227.873 30.5483 228.134 30.9517 228.549 31.2301C228.963 31.5028 229.495 31.6392 230.142 31.6392C230.779 31.6392 231.29 31.517 231.676 31.2727C232.069 31.0227 232.267 30.7017 232.273 30.3097C232.267 29.9801 232.128 29.7102 231.855 29.5C231.583 29.2841 231.162 29.1193 230.594 29.0057L228.327 28.554C227.049 28.2983 226.097 27.8551 225.472 27.2244C224.853 26.5937 224.543 25.7898 224.543 24.8125C224.543 23.9716 224.77 23.2472 225.225 22.6392C225.685 22.0312 226.33 21.5625 227.159 21.233C227.995 20.9034 228.972 20.7386 230.091 20.7386C231.745 20.7386 233.046 21.0881 233.995 21.7869C234.949 22.4858 235.506 23.4375 235.665 24.642Z" fill="white"/>
</svg>
