<svg width="300" height="50" viewBox="0 0 300 50" fill="none" xmlns="http://www.w3.org/2000/svg">
<rect width="300" height="50" rx="8" fill="#3DE383"/>
<path d="M119.021 34V16.5455H122.711V30.9574H130.194V34H119.021ZM138.485 34.2557C137.161 34.2557 136.016 33.9744 135.05 33.4119C134.09 32.8437 133.348 32.054 132.826 31.0426C132.303 30.0256 132.042 28.8466 132.042 27.5057C132.042 26.1534 132.303 24.9716 132.826 23.9602C133.348 22.9432 134.09 22.1534 135.05 21.5909C136.016 21.0227 137.161 20.7386 138.485 20.7386C139.809 20.7386 140.951 21.0227 141.911 21.5909C142.877 22.1534 143.621 22.9432 144.144 23.9602C144.667 24.9716 144.928 26.1534 144.928 27.5057C144.928 28.8466 144.667 30.0256 144.144 31.0426C143.621 32.054 142.877 32.8437 141.911 33.4119C140.951 33.9744 139.809 34.2557 138.485 34.2557ZM138.502 31.4432C139.104 31.4432 139.607 31.2727 140.01 30.9318C140.414 30.5852 140.718 30.1136 140.922 29.517C141.132 28.9205 141.238 28.2415 141.238 27.4801C141.238 26.7188 141.132 26.0398 140.922 25.4432C140.718 24.8466 140.414 24.375 140.01 24.0284C139.607 23.6818 139.104 23.5085 138.502 23.5085C137.894 23.5085 137.382 23.6818 136.968 24.0284C136.559 24.375 136.249 24.8466 136.039 25.4432C135.834 26.0398 135.732 26.7188 135.732 27.4801C135.732 28.2415 135.834 28.9205 136.039 29.517C136.249 30.1136 136.559 30.5852 136.968 30.9318C137.382 31.2727 137.894 31.4432 138.502 31.4432ZM153.186 39.1818C152.01 39.1818 151.002 39.0199 150.161 38.696C149.326 38.3778 148.661 37.9432 148.167 37.392C147.672 36.8409 147.351 36.2216 147.203 35.5341L150.561 35.0824C150.664 35.3438 150.826 35.5881 151.047 35.8153C151.269 36.0426 151.561 36.2244 151.925 36.3608C152.294 36.5028 152.743 36.5739 153.272 36.5739C154.061 36.5739 154.712 36.3807 155.223 35.9943C155.74 35.6136 155.999 34.9744 155.999 34.0767V31.6818H155.846C155.686 32.0455 155.448 32.3892 155.13 32.7131C154.811 33.0369 154.402 33.3011 153.902 33.5057C153.402 33.7102 152.806 33.8125 152.113 33.8125C151.13 33.8125 150.235 33.5852 149.428 33.1307C148.627 32.6705 147.988 31.9687 147.51 31.0256C147.039 30.0767 146.803 28.8778 146.803 27.429C146.803 25.946 147.044 24.7074 147.527 23.7131C148.01 22.7187 148.652 21.9744 149.453 21.4801C150.26 20.9858 151.144 20.7386 152.104 20.7386C152.837 20.7386 153.451 20.8636 153.945 21.1136C154.439 21.358 154.837 21.6648 155.138 22.0341C155.445 22.3977 155.681 22.7557 155.846 23.108H155.982V20.9091H159.587V34.1278C159.587 35.2415 159.314 36.1733 158.769 36.9233C158.223 37.6733 157.468 38.2358 156.502 38.6108C155.542 38.9915 154.436 39.1818 153.186 39.1818ZM153.263 31.0852C153.848 31.0852 154.343 30.9403 154.746 30.6506C155.155 30.3551 155.468 29.9347 155.684 29.3892C155.905 28.8381 156.016 28.179 156.016 27.4119C156.016 26.6449 155.908 25.9801 155.692 25.4176C155.476 24.8494 155.164 24.4091 154.755 24.0966C154.346 23.7841 153.848 23.6278 153.263 23.6278C152.667 23.6278 152.164 23.7898 151.755 24.1136C151.346 24.4318 151.036 24.875 150.826 25.4432C150.615 26.0114 150.51 26.6676 150.51 27.4119C150.51 28.1676 150.615 28.821 150.826 29.3722C151.042 29.9176 151.351 30.3409 151.755 30.642C152.164 30.9375 152.667 31.0852 153.263 31.0852ZM162.476 34V20.9091H166.107V34H162.476ZM164.3 19.2216C163.76 19.2216 163.297 19.0426 162.911 18.6847C162.53 18.321 162.34 17.8864 162.34 17.3807C162.34 16.8807 162.53 16.4517 162.911 16.0938C163.297 15.7301 163.76 15.5483 164.3 15.5483C164.84 15.5483 165.3 15.7301 165.681 16.0938C166.067 16.4517 166.26 16.8807 166.26 17.3807C166.26 17.8864 166.067 18.321 165.681 18.6847C165.3 19.0426 164.84 19.2216 164.3 19.2216ZM172.646 26.4318V34H169.015V20.9091H172.475V23.2188H172.629C172.919 22.4574 173.404 21.8551 174.086 21.4119C174.768 20.9631 175.595 20.7386 176.566 20.7386C177.475 20.7386 178.268 20.9375 178.944 21.3352C179.62 21.733 180.146 22.3011 180.521 23.0398C180.896 23.7727 181.083 24.6477 181.083 25.6648V34H177.453V26.3125C177.458 25.5114 177.254 24.8864 176.839 24.4375C176.424 23.983 175.853 23.7557 175.126 23.7557C174.637 23.7557 174.206 23.8608 173.831 24.071C173.461 24.2812 173.172 24.5881 172.961 24.9915C172.757 25.3892 172.652 25.8693 172.646 26.4318Z" fill="white"/>
</svg>
