<svg width="300" height="50" viewBox="0 0 300 50" fill="none" xmlns="http://www.w3.org/2000/svg">
<rect width="300" height="50" rx="8" fill="#3DE383"/>
<path d="M97.7163 34V16.5455H104.603C105.921 16.5455 107.046 16.7812 107.978 17.2528C108.915 17.7187 109.628 18.3807 110.117 19.2386C110.611 20.0909 110.858 21.0937 110.858 22.2472C110.858 23.4062 110.608 24.4034 110.108 25.2386C109.608 26.0682 108.884 26.7045 107.935 27.1477C106.992 27.5909 105.85 27.8125 104.509 27.8125H99.8981V24.8466H103.912C104.617 24.8466 105.202 24.75 105.668 24.5568C106.134 24.3636 106.48 24.0739 106.708 23.6875C106.941 23.3011 107.057 22.821 107.057 22.2472C107.057 21.6676 106.941 21.179 106.708 20.7812C106.48 20.3835 106.131 20.0824 105.659 19.8778C105.194 19.6676 104.605 19.5625 103.895 19.5625H101.407V34H97.7163ZM107.142 26.0568L111.48 34H107.407L103.162 26.0568H107.142ZM119.153 34.2557C117.806 34.2557 116.647 33.983 115.676 33.4375C114.71 32.8864 113.966 32.108 113.443 31.1023C112.92 30.0909 112.659 28.8949 112.659 27.5142C112.659 26.1676 112.92 24.9858 113.443 23.9688C113.966 22.9517 114.701 22.1591 115.65 21.5909C116.605 21.0227 117.724 20.7386 119.008 20.7386C119.872 20.7386 120.676 20.8778 121.42 21.1562C122.17 21.429 122.824 21.8409 123.38 22.392C123.943 22.9432 124.38 23.6364 124.693 24.4716C125.005 25.3011 125.162 26.2727 125.162 27.3864V28.3835H114.108V26.1335H121.744C121.744 25.6108 121.63 25.1477 121.403 24.7443C121.176 24.3409 120.86 24.0256 120.457 23.7983C120.059 23.5653 119.596 23.4489 119.068 23.4489C118.517 23.4489 118.028 23.5767 117.602 23.8324C117.181 24.0824 116.852 24.4205 116.613 24.8466C116.375 25.267 116.252 25.7358 116.247 26.2528V28.392C116.247 29.0398 116.366 29.5994 116.605 30.071C116.849 30.5426 117.193 30.9062 117.636 31.1619C118.079 31.4176 118.605 31.5455 119.213 31.5455C119.616 31.5455 119.985 31.4886 120.321 31.375C120.656 31.2614 120.943 31.0909 121.181 30.8636C121.42 30.6364 121.602 30.358 121.727 30.0284L125.085 30.25C124.914 31.0568 124.565 31.7614 124.037 32.3636C123.514 32.9602 122.838 33.4261 122.008 33.7614C121.184 34.0909 120.233 34.2557 119.153 34.2557ZM133.429 39.1818C132.252 39.1818 131.244 39.0199 130.403 38.696C129.568 38.3778 128.903 37.9432 128.409 37.392C127.914 36.8409 127.593 36.2216 127.446 35.5341L130.804 35.0824C130.906 35.3438 131.068 35.5881 131.289 35.8153C131.511 36.0426 131.804 36.2244 132.167 36.3608C132.537 36.5028 132.985 36.5739 133.514 36.5739C134.304 36.5739 134.954 36.3807 135.466 35.9943C135.983 35.6136 136.241 34.9744 136.241 34.0767V31.6818H136.088C135.929 32.0455 135.69 32.3892 135.372 32.7131C135.054 33.0369 134.645 33.3011 134.145 33.5057C133.645 33.7102 133.048 33.8125 132.355 33.8125C131.372 33.8125 130.477 33.5852 129.67 33.1307C128.869 32.6705 128.23 31.9687 127.752 31.0256C127.281 30.0767 127.045 28.8778 127.045 27.429C127.045 25.946 127.287 24.7074 127.77 23.7131C128.252 22.7187 128.895 21.9744 129.696 21.4801C130.502 20.9858 131.386 20.7386 132.346 20.7386C133.079 20.7386 133.693 20.8636 134.187 21.1136C134.681 21.358 135.079 21.6648 135.38 22.0341C135.687 22.3977 135.923 22.7557 136.088 23.108H136.224V20.9091H139.829V34.1278C139.829 35.2415 139.556 36.1733 139.011 36.9233C138.466 37.6733 137.71 38.2358 136.744 38.6108C135.784 38.9915 134.679 39.1818 133.429 39.1818ZM133.505 31.0852C134.091 31.0852 134.585 30.9403 134.988 30.6506C135.397 30.3551 135.71 29.9347 135.926 29.3892C136.147 28.8381 136.258 28.179 136.258 27.4119C136.258 26.6449 136.15 25.9801 135.934 25.4176C135.718 24.8494 135.406 24.4091 134.997 24.0966C134.588 23.7841 134.091 23.6278 133.505 23.6278C132.909 23.6278 132.406 23.7898 131.997 24.1136C131.588 24.4318 131.278 24.875 131.068 25.4432C130.858 26.0114 130.752 26.6676 130.752 27.4119C130.752 28.1676 130.858 28.821 131.068 29.3722C131.284 29.9176 131.593 30.3409 131.997 30.642C132.406 30.9375 132.909 31.0852 133.505 31.0852ZM142.718 34V20.9091H146.349V34H142.718ZM144.542 19.2216C144.002 19.2216 143.539 19.0426 143.153 18.6847C142.772 18.321 142.582 17.8864 142.582 17.3807C142.582 16.8807 142.772 16.4517 143.153 16.0938C143.539 15.7301 144.002 15.5483 144.542 15.5483C145.082 15.5483 145.542 15.7301 145.923 16.0938C146.309 16.4517 146.502 16.8807 146.502 17.3807C146.502 17.8864 146.309 18.321 145.923 18.6847C145.542 19.0426 145.082 19.2216 144.542 19.2216ZM160.15 24.642L156.826 24.8466C156.769 24.5625 156.647 24.3068 156.459 24.0795C156.272 23.8466 156.025 23.6619 155.718 23.5256C155.417 23.3835 155.056 23.3125 154.635 23.3125C154.073 23.3125 153.598 23.4318 153.212 23.6705C152.826 23.9034 152.632 24.2159 152.632 24.608C152.632 24.9205 152.757 25.1847 153.007 25.4006C153.257 25.6165 153.686 25.7898 154.294 25.9205L156.664 26.3977C157.936 26.6591 158.885 27.0795 159.51 27.6591C160.135 28.2386 160.448 29 160.448 29.9432C160.448 30.8011 160.195 31.554 159.689 32.2017C159.189 32.8494 158.502 33.3551 157.627 33.7188C156.757 34.0767 155.755 34.2557 154.618 34.2557C152.885 34.2557 151.505 33.8949 150.476 33.1733C149.453 32.446 148.854 31.4574 148.678 30.2074L152.249 30.0199C152.357 30.5483 152.618 30.9517 153.033 31.2301C153.448 31.5028 153.979 31.6392 154.627 31.6392C155.263 31.6392 155.775 31.517 156.161 31.2727C156.553 31.0227 156.752 30.7017 156.757 30.3097C156.752 29.9801 156.613 29.7102 156.34 29.5C156.067 29.2841 155.647 29.1193 155.078 29.0057L152.811 28.554C151.533 28.2983 150.581 27.8551 149.956 27.2244C149.337 26.5937 149.027 25.7898 149.027 24.8125C149.027 23.9716 149.255 23.2472 149.709 22.6392C150.169 22.0312 150.814 21.5625 151.644 21.233C152.479 20.9034 153.456 20.7386 154.576 20.7386C156.229 20.7386 157.53 21.0881 158.479 21.7869C159.434 22.4858 159.99 23.4375 160.15 24.642ZM169.697 20.9091V23.6364H161.814V20.9091H169.697ZM163.603 17.7727H167.234V29.9773C167.234 30.3125 167.285 30.5739 167.387 30.7614C167.49 30.9432 167.632 31.071 167.814 31.1449C168.001 31.2187 168.217 31.2557 168.461 31.2557C168.632 31.2557 168.802 31.2415 168.973 31.2131C169.143 31.179 169.274 31.1534 169.365 31.1364L169.936 33.8381C169.754 33.8949 169.498 33.9602 169.169 34.0341C168.839 34.1136 168.439 34.1619 167.967 34.179C167.092 34.2131 166.325 34.0966 165.666 33.8295C165.012 33.5625 164.504 33.1477 164.14 32.5852C163.777 32.0227 163.598 31.3125 163.603 30.4545V17.7727ZM172.062 34V20.9091H175.582V23.1932H175.718C175.957 22.3807 176.358 21.767 176.92 21.3523C177.483 20.9318 178.13 20.7216 178.863 20.7216C179.045 20.7216 179.241 20.733 179.451 20.7557C179.662 20.7784 179.846 20.8097 180.005 20.8494V24.071C179.835 24.0199 179.599 23.9744 179.298 23.9347C178.997 23.8949 178.721 23.875 178.471 23.875C177.937 23.875 177.46 23.9915 177.039 24.2244C176.625 24.4517 176.295 24.7699 176.051 25.179C175.812 25.5881 175.693 26.0597 175.693 26.5938V34H172.062ZM185.24 34.2472C184.405 34.2472 183.661 34.1023 183.007 33.8125C182.354 33.517 181.837 33.0824 181.456 32.5085C181.081 31.929 180.894 31.2074 180.894 30.3438C180.894 29.6165 181.027 29.0057 181.294 28.5114C181.561 28.017 181.925 27.6193 182.385 27.3182C182.846 27.017 183.368 26.7898 183.953 26.6364C184.544 26.483 185.164 26.375 185.811 26.3125C186.573 26.233 187.186 26.1591 187.652 26.0909C188.118 26.017 188.456 25.9091 188.667 25.767C188.877 25.625 188.982 25.4148 188.982 25.1364V25.0852C188.982 24.5455 188.811 24.1278 188.471 23.8324C188.135 23.5369 187.658 23.3892 187.039 23.3892C186.385 23.3892 185.865 23.5341 185.479 23.8239C185.093 24.108 184.837 24.4659 184.712 24.8977L181.354 24.625C181.525 23.8295 181.86 23.142 182.36 22.5625C182.86 21.9773 183.505 21.5284 184.294 21.2159C185.09 20.8977 186.01 20.7386 187.056 20.7386C187.783 20.7386 188.479 20.8239 189.144 20.9943C189.814 21.1648 190.408 21.429 190.925 21.7869C191.448 22.1449 191.86 22.6051 192.161 23.1676C192.462 23.7244 192.613 24.392 192.613 25.1705V34H189.169V32.1847H189.067C188.857 32.5938 188.576 32.9545 188.223 33.267C187.871 33.5739 187.448 33.8153 186.953 33.9915C186.459 34.1619 185.888 34.2472 185.24 34.2472ZM186.28 31.7415C186.814 31.7415 187.286 31.6364 187.695 31.4261C188.104 31.2102 188.425 30.9205 188.658 30.5568C188.891 30.1932 189.007 29.7812 189.007 29.321V27.9318C188.894 28.0057 188.738 28.0739 188.539 28.1364C188.346 28.1932 188.127 28.2472 187.882 28.2983C187.638 28.3437 187.394 28.3864 187.15 28.4261C186.905 28.4602 186.684 28.4915 186.485 28.5199C186.059 28.5824 185.686 28.6818 185.368 28.8182C185.05 28.9545 184.803 29.1392 184.627 29.3722C184.451 29.5994 184.363 29.8835 184.363 30.2244C184.363 30.7188 184.542 31.0966 184.9 31.358C185.263 31.6136 185.723 31.7415 186.28 31.7415ZM195.429 34V20.9091H198.949V23.1932H199.086C199.324 22.3807 199.725 21.767 200.287 21.3523C200.85 20.9318 201.498 20.7216 202.23 20.7216C202.412 20.7216 202.608 20.733 202.819 20.7557C203.029 20.7784 203.213 20.8097 203.373 20.8494V24.071C203.202 24.0199 202.966 23.9744 202.665 23.9347C202.364 23.8949 202.088 23.875 201.838 23.875C201.304 23.875 200.827 23.9915 200.407 24.2244C199.992 24.4517 199.662 24.7699 199.418 25.179C199.179 25.5881 199.06 26.0597 199.06 26.5938V34H195.429Z" fill="white"/>
</svg>
