<svg width="300" height="50" viewBox="0 0 300 50" fill="none" xmlns="http://www.w3.org/2000/svg">
<rect width="300" height="50" rx="8" fill="#E33D3D"/>
<path d="M137.982 21.5653C137.914 20.8778 137.621 20.3437 137.104 19.9631C136.587 19.5824 135.885 19.392 134.999 19.392C134.397 19.392 133.888 19.4773 133.473 19.6477C133.059 19.8125 132.74 20.0426 132.519 20.3381C132.303 20.6335 132.195 20.9688 132.195 21.3438C132.184 21.6562 132.249 21.929 132.391 22.1619C132.539 22.3949 132.74 22.5966 132.996 22.767C133.252 22.9318 133.547 23.0767 133.882 23.2017C134.218 23.321 134.576 23.4233 134.956 23.5085L136.525 23.8835C137.286 24.054 137.985 24.2812 138.621 24.5653C139.257 24.8494 139.809 25.1989 140.275 25.6136C140.74 26.0284 141.101 26.517 141.357 27.0795C141.618 27.642 141.752 28.2869 141.757 29.0142C141.752 30.0824 141.479 31.0085 140.939 31.7926C140.405 32.571 139.632 33.1761 138.621 33.608C137.615 34.0341 136.402 34.2472 134.982 34.2472C133.573 34.2472 132.346 34.0312 131.3 33.5994C130.26 33.1676 129.448 32.5284 128.863 31.6818C128.283 30.8295 127.979 29.7756 127.951 28.5199H131.522C131.561 29.1051 131.729 29.5937 132.025 29.9858C132.326 30.3722 132.726 30.6648 133.226 30.8636C133.732 31.0568 134.303 31.1534 134.939 31.1534C135.564 31.1534 136.107 31.0625 136.567 30.8807C137.033 30.6989 137.394 30.446 137.65 30.1222C137.905 29.7983 138.033 29.4261 138.033 29.0057C138.033 28.6136 137.917 28.2841 137.684 28.017C137.456 27.75 137.121 27.5227 136.678 27.3352C136.24 27.1477 135.703 26.9773 135.067 26.8239L133.167 26.3466C131.695 25.9886 130.533 25.429 129.681 24.6676C128.828 23.9062 128.405 22.8807 128.411 21.5909C128.405 20.5341 128.686 19.6108 129.255 18.821C129.828 18.0312 130.615 17.4148 131.615 16.9716C132.615 16.5284 133.752 16.3068 135.025 16.3068C136.32 16.3068 137.451 16.5284 138.417 16.9716C139.388 17.4148 140.144 18.0312 140.684 18.821C141.223 19.6108 141.502 20.5256 141.519 21.5653H137.982ZM147.904 34.2472C147.069 34.2472 146.325 34.1023 145.672 33.8125C145.018 33.517 144.501 33.0824 144.12 32.5085C143.745 31.929 143.558 31.2074 143.558 30.3438C143.558 29.6165 143.691 29.0057 143.958 28.5114C144.225 28.017 144.589 27.6193 145.049 27.3182C145.51 27.017 146.032 26.7898 146.618 26.6364C147.208 26.483 147.828 26.375 148.475 26.3125C149.237 26.233 149.85 26.1591 150.316 26.0909C150.782 26.017 151.12 25.9091 151.331 25.767C151.541 25.625 151.646 25.4148 151.646 25.1364V25.0852C151.646 24.5455 151.475 24.1278 151.135 23.8324C150.799 23.5369 150.322 23.3892 149.703 23.3892C149.049 23.3892 148.529 23.5341 148.143 23.8239C147.757 24.108 147.501 24.4659 147.376 24.8977L144.018 24.625C144.189 23.8295 144.524 23.142 145.024 22.5625C145.524 21.9773 146.169 21.5284 146.958 21.2159C147.754 20.8977 148.674 20.7386 149.72 20.7386C150.447 20.7386 151.143 20.8239 151.808 20.9943C152.478 21.1648 153.072 21.429 153.589 21.7869C154.112 22.1449 154.524 22.6051 154.825 23.1676C155.126 23.7244 155.277 24.392 155.277 25.1705V34H151.833V32.1847H151.731C151.521 32.5938 151.24 32.9545 150.887 33.267C150.535 33.5739 150.112 33.8153 149.618 33.9915C149.123 34.1619 148.552 34.2472 147.904 34.2472ZM148.944 31.7415C149.478 31.7415 149.95 31.6364 150.359 31.4261C150.768 31.2102 151.089 30.9205 151.322 30.5568C151.555 30.1932 151.672 29.7812 151.672 29.321V27.9318C151.558 28.0057 151.402 28.0739 151.203 28.1364C151.01 28.1932 150.791 28.2472 150.547 28.2983C150.302 28.3437 150.058 28.3864 149.814 28.4261C149.569 28.4602 149.348 28.4915 149.149 28.5199C148.723 28.5824 148.35 28.6818 148.032 28.8182C147.714 28.9545 147.467 29.1392 147.291 29.3722C147.115 29.5994 147.027 29.8835 147.027 30.2244C147.027 30.7188 147.206 31.0966 147.564 31.358C147.927 31.6136 148.387 31.7415 148.944 31.7415ZM158.093 34V20.9091H161.724V34H158.093ZM159.917 19.2216C159.377 19.2216 158.914 19.0426 158.528 18.6847C158.147 18.321 157.957 17.8864 157.957 17.3807C157.957 16.8807 158.147 16.4517 158.528 16.0938C158.914 15.7301 159.377 15.5483 159.917 15.5483C160.457 15.5483 160.917 15.7301 161.298 16.0938C161.684 16.4517 161.877 16.8807 161.877 17.3807C161.877 17.8864 161.684 18.321 161.298 18.6847C160.917 19.0426 160.457 19.2216 159.917 19.2216ZM164.632 34V20.9091H168.152V23.1932H168.289C168.527 22.3807 168.928 21.767 169.49 21.3523C170.053 20.9318 170.701 20.7216 171.434 20.7216C171.615 20.7216 171.811 20.733 172.022 20.7557C172.232 20.7784 172.417 20.8097 172.576 20.8494V24.071C172.405 24.0199 172.169 23.9744 171.868 23.9347C171.567 23.8949 171.292 23.875 171.042 23.875C170.507 23.875 170.03 23.9915 169.61 24.2244C169.195 24.4517 168.865 24.7699 168.621 25.179C168.382 25.5881 168.263 26.0597 168.263 26.5938V34H164.632Z" fill="white"/>
</svg>
