<svg width="300" height="50" viewBox="0 0 300 50" fill="none" xmlns="http://www.w3.org/2000/svg">
<rect width="300" height="50" rx="8" fill="white"/>
<path d="M17.739 19.5881V16.5455H32.0742V19.5881H26.7305V34H23.0827V19.5881H17.739ZM38.3832 34.2557C37.0593 34.2557 35.9144 33.9744 34.9485 33.4119C33.9883 32.8437 33.2468 32.054 32.7241 31.0426C32.2013 30.0256 31.94 28.8466 31.94 27.5057C31.94 26.1534 32.2013 24.9716 32.7241 23.9602C33.2468 22.9432 33.9883 22.1534 34.9485 21.5909C35.9144 21.0227 37.0593 20.7386 38.3832 20.7386C39.707 20.7386 40.8491 21.0227 41.8093 21.5909C42.7752 22.1534 43.5195 22.9432 44.0423 23.9602C44.565 24.9716 44.8264 26.1534 44.8264 27.5057C44.8264 28.8466 44.565 30.0256 44.0423 31.0426C43.5195 32.054 42.7752 32.8437 41.8093 33.4119C40.8491 33.9744 39.707 34.2557 38.3832 34.2557ZM38.4002 31.4432C39.0025 31.4432 39.5053 31.2727 39.9087 30.9318C40.3121 30.5852 40.6161 30.1136 40.8207 29.517C41.0309 28.9205 41.136 28.2415 41.136 27.4801C41.136 26.7188 41.0309 26.0398 40.8207 25.4432C40.6161 24.8466 40.3121 24.375 39.9087 24.0284C39.5053 23.6818 39.0025 23.5085 38.4002 23.5085C37.7923 23.5085 37.2809 23.6818 36.8661 24.0284C36.457 24.375 36.1474 24.8466 35.9371 25.4432C35.7326 26.0398 35.6303 26.7188 35.6303 27.4801C35.6303 28.2415 35.7326 28.9205 35.9371 29.517C36.1474 30.1136 36.457 30.5852 36.8661 30.9318C37.2809 31.2727 37.7923 31.4432 38.4002 31.4432ZM53.1019 34.2557C51.761 34.2557 50.6076 33.9716 49.6417 33.4034C48.6815 32.8295 47.9428 32.0341 47.4258 31.017C46.9144 30 46.6587 28.8295 46.6587 27.5057C46.6587 26.1648 46.9173 24.9886 47.4343 23.9773C47.957 22.9602 48.6985 22.1676 49.6587 21.5994C50.619 21.0256 51.761 20.7386 53.0849 20.7386C54.2269 20.7386 55.2269 20.946 56.0849 21.3608C56.9428 21.7756 57.6218 22.358 58.1218 23.108C58.6218 23.858 58.8974 24.7386 58.9485 25.75H55.5224C55.4258 25.0966 55.1701 24.571 54.7553 24.1733C54.3462 23.7699 53.8093 23.5682 53.1445 23.5682C52.582 23.5682 52.0906 23.7216 51.6701 24.0284C51.2553 24.3295 50.9315 24.7699 50.6985 25.3494C50.4656 25.929 50.3491 26.6307 50.3491 27.4545C50.3491 28.2898 50.4627 29 50.69 29.5852C50.9229 30.1705 51.2496 30.6165 51.6701 30.9233C52.0906 31.2301 52.582 31.3835 53.1445 31.3835C53.5593 31.3835 53.9315 31.2983 54.261 31.1278C54.5962 30.9574 54.8718 30.7102 55.0877 30.3864C55.3093 30.0568 55.4542 29.6619 55.5224 29.2017H58.9485C58.8917 30.2017 58.619 31.0824 58.1303 31.8438C57.6474 32.5994 56.9798 33.1903 56.1275 33.6165C55.2752 34.0426 54.2667 34.2557 53.1019 34.2557ZM65.006 34.2472C64.1708 34.2472 63.4265 34.1023 62.7731 33.8125C62.1197 33.517 61.6026 33.0824 61.2219 32.5085C60.8469 31.929 60.6594 31.2074 60.6594 30.3438C60.6594 29.6165 60.793 29.0057 61.06 28.5114C61.3271 28.017 61.6907 27.6193 62.1509 27.3182C62.6112 27.017 63.1339 26.7898 63.7191 26.6364C64.31 26.483 64.9293 26.375 65.5771 26.3125C66.3384 26.233 66.9521 26.1591 67.418 26.0909C67.8839 26.017 68.2219 25.9091 68.4322 25.767C68.6424 25.625 68.7475 25.4148 68.7475 25.1364V25.0852C68.7475 24.5455 68.5771 24.1278 68.2362 23.8324C67.9009 23.5369 67.4237 23.3892 66.8043 23.3892C66.1509 23.3892 65.631 23.5341 65.2447 23.8239C64.8583 24.108 64.6026 24.4659 64.4776 24.8977L61.1197 24.625C61.2901 23.8295 61.6254 23.142 62.1254 22.5625C62.6254 21.9773 63.2702 21.5284 64.06 21.2159C64.8555 20.8977 65.7759 20.7386 66.8214 20.7386C67.5487 20.7386 68.2447 20.8239 68.9094 20.9943C69.5799 21.1648 70.1737 21.429 70.6907 21.7869C71.2134 22.1449 71.6254 22.6051 71.9265 23.1676C72.2276 23.7244 72.3782 24.392 72.3782 25.1705V34H68.935V32.1847H68.8327C68.6225 32.5938 68.3413 32.9545 67.989 33.267C67.6367 33.5739 67.2134 33.8153 66.7191 33.9915C66.2248 34.1619 65.6538 34.2472 65.006 34.2472ZM66.0458 31.7415C66.5799 31.7415 67.0515 31.6364 67.4606 31.4261C67.8697 31.2102 68.1907 30.9205 68.4237 30.5568C68.6566 30.1932 68.7731 29.7812 68.7731 29.321V27.9318C68.6594 28.0057 68.5032 28.0739 68.3043 28.1364C68.1112 28.1932 67.8924 28.2472 67.6481 28.2983C67.4038 28.3437 67.1594 28.3864 66.9151 28.4261C66.6708 28.4602 66.4492 28.4915 66.2504 28.5199C65.8242 28.5824 65.4521 28.6818 65.1339 28.8182C64.8157 28.9545 64.5685 29.1392 64.3924 29.3722C64.2163 29.5994 64.1282 29.8835 64.1282 30.2244C64.1282 30.7188 64.3072 31.0966 64.6651 31.358C65.0288 31.6136 65.489 31.7415 66.0458 31.7415ZM75.195 34V20.9091H78.7148V23.1932H78.8512C79.0898 22.3807 79.4904 21.767 80.0529 21.3523C80.6154 20.9318 81.2631 20.7216 81.9961 20.7216C82.1779 20.7216 82.3739 20.733 82.5842 20.7557C82.7944 20.7784 82.979 20.8097 83.1381 20.8494V24.071C82.9677 24.0199 82.7319 23.9744 82.4308 23.9347C82.1296 23.8949 81.854 23.875 81.604 23.875C81.07 23.875 80.5927 23.9915 80.1722 24.2244C79.7575 24.4517 79.4279 24.7699 79.1836 25.179C78.945 25.5881 78.8256 26.0597 78.8256 26.5938V34H75.195ZM96.4847 34.2557C95.1438 34.2557 93.9904 33.9716 93.0245 33.4034C92.0643 32.8295 91.3256 32.0341 90.8086 31.017C90.2972 30 90.0415 28.8295 90.0415 27.5057C90.0415 26.1648 90.3001 24.9886 90.8171 23.9773C91.3398 22.9602 92.0813 22.1676 93.0415 21.5994C94.0018 21.0256 95.1438 20.7386 96.4677 20.7386C97.6097 20.7386 98.6097 20.946 99.4677 21.3608C100.326 21.7756 101.005 22.358 101.505 23.108C102.005 23.858 102.28 24.7386 102.331 25.75H98.9052C98.8086 25.0966 98.5529 24.571 98.1381 24.1733C97.729 23.7699 97.1921 23.5682 96.5273 23.5682C95.9648 23.5682 95.4734 23.7216 95.0529 24.0284C94.6381 24.3295 94.3143 24.7699 94.0813 25.3494C93.8484 25.929 93.7319 26.6307 93.7319 27.4545C93.7319 28.2898 93.8455 29 94.0728 29.5852C94.3058 30.1705 94.6325 30.6165 95.0529 30.9233C95.4734 31.2301 95.9648 31.3835 96.5273 31.3835C96.9421 31.3835 97.3143 31.2983 97.6438 31.1278C97.979 30.9574 98.2546 30.7102 98.4705 30.3864C98.6921 30.0568 98.837 29.6619 98.9052 29.2017H102.331C102.275 30.2017 102.002 31.0824 101.513 31.8438C101.03 32.5994 100.363 33.1903 99.5103 33.6165C98.658 34.0426 97.6495 34.2557 96.4847 34.2557ZM110.571 34.2557C109.247 34.2557 108.102 33.9744 107.136 33.4119C106.176 32.8437 105.434 32.054 104.912 31.0426C104.389 30.0256 104.127 28.8466 104.127 27.5057C104.127 26.1534 104.389 24.9716 104.912 23.9602C105.434 22.9432 106.176 22.1534 107.136 21.5909C108.102 21.0227 109.247 20.7386 110.571 20.7386C111.895 20.7386 113.037 21.0227 113.997 21.5909C114.963 22.1534 115.707 22.9432 116.23 23.9602C116.752 24.9716 117.014 26.1534 117.014 27.5057C117.014 28.8466 116.752 30.0256 116.23 31.0426C115.707 32.054 114.963 32.8437 113.997 33.4119C113.037 33.9744 111.895 34.2557 110.571 34.2557ZM110.588 31.4432C111.19 31.4432 111.693 31.2727 112.096 30.9318C112.5 30.5852 112.804 30.1136 113.008 29.517C113.218 28.9205 113.324 28.2415 113.324 27.4801C113.324 26.7188 113.218 26.0398 113.008 25.4432C112.804 24.8466 112.5 24.375 112.096 24.0284C111.693 23.6818 111.19 23.5085 110.588 23.5085C109.98 23.5085 109.468 23.6818 109.054 24.0284C108.645 24.375 108.335 24.8466 108.125 25.4432C107.92 26.0398 107.818 26.7188 107.818 27.4801C107.818 28.2415 107.92 28.9205 108.125 29.517C108.335 30.1136 108.645 30.5852 109.054 30.9318C109.468 31.2727 109.98 31.4432 110.588 31.4432ZM119.375 34V20.9091H122.835V23.2188H122.988C123.261 22.4517 123.716 21.8466 124.352 21.4034C124.988 20.9602 125.75 20.7386 126.636 20.7386C127.534 20.7386 128.298 20.9631 128.929 21.4119C129.559 21.8551 129.98 22.4574 130.19 23.2188H130.326C130.593 22.4688 131.076 21.8693 131.775 21.4205C132.48 20.9659 133.312 20.7386 134.272 20.7386C135.494 20.7386 136.485 21.1278 137.247 21.9062C138.014 22.679 138.397 23.7756 138.397 25.196V34H134.775V25.9119C134.775 25.1847 134.582 24.6392 134.196 24.2756C133.809 23.9119 133.326 23.7301 132.747 23.7301C132.088 23.7301 131.574 23.9403 131.204 24.3608C130.835 24.7756 130.65 25.3239 130.65 26.0057V34H127.13V25.8352C127.13 25.1932 126.946 24.6818 126.576 24.3011C126.213 23.9205 125.733 23.7301 125.136 23.7301C124.733 23.7301 124.369 23.8324 124.045 24.0369C123.727 24.2358 123.474 24.517 123.287 24.8807C123.099 25.2386 123.005 25.6591 123.005 26.142V34H119.375ZM147.18 34.2557C145.856 34.2557 144.711 33.9744 143.745 33.4119C142.785 32.8437 142.044 32.054 141.521 31.0426C140.998 30.0256 140.737 28.8466 140.737 27.5057C140.737 26.1534 140.998 24.9716 141.521 23.9602C142.044 22.9432 142.785 22.1534 143.745 21.5909C144.711 21.0227 145.856 20.7386 147.18 20.7386C148.504 20.7386 149.646 21.0227 150.606 21.5909C151.572 22.1534 152.316 22.9432 152.839 23.9602C153.362 24.9716 153.623 26.1534 153.623 27.5057C153.623 28.8466 153.362 30.0256 152.839 31.0426C152.316 32.054 151.572 32.8437 150.606 33.4119C149.646 33.9744 148.504 34.2557 147.18 34.2557ZM147.197 31.4432C147.799 31.4432 148.302 31.2727 148.706 30.9318C149.109 30.5852 149.413 30.1136 149.618 29.517C149.828 28.9205 149.933 28.2415 149.933 27.4801C149.933 26.7188 149.828 26.0398 149.618 25.4432C149.413 24.8466 149.109 24.375 148.706 24.0284C148.302 23.6818 147.799 23.5085 147.197 23.5085C146.589 23.5085 146.078 23.6818 145.663 24.0284C145.254 24.375 144.944 24.8466 144.734 25.4432C144.529 26.0398 144.427 26.7188 144.427 27.4801C144.427 28.2415 144.529 28.9205 144.734 29.517C144.944 30.1136 145.254 30.5852 145.663 30.9318C146.078 31.2727 146.589 31.4432 147.197 31.4432ZM167.453 34.2557C166.113 34.2557 164.959 33.9716 163.993 33.4034C163.033 32.8295 162.294 32.0341 161.777 31.017C161.266 30 161.01 28.8295 161.01 27.5057C161.01 26.1648 161.269 24.9886 161.786 23.9773C162.309 22.9602 163.05 22.1676 164.01 21.5994C164.971 21.0256 166.113 20.7386 167.436 20.7386C168.578 20.7386 169.578 20.946 170.436 21.3608C171.294 21.7756 171.973 22.358 172.473 23.108C172.973 23.858 173.249 24.7386 173.3 25.75H169.874C169.777 25.0966 169.522 24.571 169.107 24.1733C168.698 23.7699 168.161 23.5682 167.496 23.5682C166.934 23.5682 166.442 23.7216 166.022 24.0284C165.607 24.3295 165.283 24.7699 165.05 25.3494C164.817 25.929 164.701 26.6307 164.701 27.4545C164.701 28.2898 164.814 29 165.042 29.5852C165.275 30.1705 165.601 30.6165 166.022 30.9233C166.442 31.2301 166.934 31.3835 167.496 31.3835C167.911 31.3835 168.283 31.2983 168.613 31.1278C168.948 30.9574 169.223 30.7102 169.439 30.3864C169.661 30.0568 169.806 29.6619 169.874 29.2017H173.3C173.243 30.2017 172.971 31.0824 172.482 31.8438C171.999 32.5994 171.331 33.1903 170.479 33.6165C169.627 34.0426 168.618 34.2557 167.453 34.2557ZM181.539 34.2557C180.216 34.2557 179.071 33.9744 178.105 33.4119C177.145 32.8437 176.403 32.054 175.88 31.0426C175.358 30.0256 175.096 28.8466 175.096 27.5057C175.096 26.1534 175.358 24.9716 175.88 23.9602C176.403 22.9432 177.145 22.1534 178.105 21.5909C179.071 21.0227 180.216 20.7386 181.539 20.7386C182.863 20.7386 184.005 21.0227 184.966 21.5909C185.931 22.1534 186.676 22.9432 187.199 23.9602C187.721 24.9716 187.983 26.1534 187.983 27.5057C187.983 28.8466 187.721 30.0256 187.199 31.0426C186.676 32.054 185.931 32.8437 184.966 33.4119C184.005 33.9744 182.863 34.2557 181.539 34.2557ZM181.556 31.4432C182.159 31.4432 182.662 31.2727 183.065 30.9318C183.468 30.5852 183.772 30.1136 183.977 29.517C184.187 28.9205 184.292 28.2415 184.292 27.4801C184.292 26.7188 184.187 26.0398 183.977 25.4432C183.772 24.8466 183.468 24.375 183.065 24.0284C182.662 23.6818 182.159 23.5085 181.556 23.5085C180.949 23.5085 180.437 23.6818 180.022 24.0284C179.613 24.375 179.304 24.8466 179.093 25.4432C178.889 26.0398 178.787 26.7188 178.787 27.4801C178.787 28.2415 178.889 28.9205 179.093 29.517C179.304 30.1136 179.613 30.5852 180.022 30.9318C180.437 31.2727 180.949 31.4432 181.556 31.4432ZM193.974 26.4318V34H190.343V20.9091H193.804V23.2188H193.957C194.247 22.4574 194.733 21.8551 195.414 21.4119C196.096 20.9631 196.923 20.7386 197.895 20.7386C198.804 20.7386 199.596 20.9375 200.272 21.3352C200.949 21.733 201.474 22.3011 201.849 23.0398C202.224 23.7727 202.412 24.6477 202.412 25.6648V34H198.781V26.3125C198.787 25.5114 198.582 24.8864 198.167 24.4375C197.752 23.983 197.181 23.7557 196.454 23.7557C195.966 23.7557 195.534 23.8608 195.159 24.071C194.789 24.2812 194.5 24.5881 194.289 24.9915C194.085 25.3892 193.98 25.8693 193.974 26.4318ZM217.009 20.9091L212.432 34H208.341L203.765 20.9091H207.6L210.319 30.2756H210.455L213.165 20.9091H217.009ZM218.867 34V20.9091H222.498V34H218.867ZM220.691 19.2216C220.151 19.2216 219.688 19.0426 219.301 18.6847C218.921 18.321 218.73 17.8864 218.73 17.3807C218.73 16.8807 218.921 16.4517 219.301 16.0938C219.688 15.7301 220.151 15.5483 220.691 15.5483C221.23 15.5483 221.691 15.7301 222.071 16.0938C222.458 16.4517 222.651 16.8807 222.651 17.3807C222.651 17.8864 222.458 18.321 222.071 18.6847C221.691 19.0426 221.23 19.2216 220.691 19.2216ZM230.23 34.2131C229.235 34.2131 228.335 33.9574 227.528 33.446C226.727 32.929 226.091 32.1705 225.619 31.1705C225.153 30.1648 224.92 28.9318 224.92 27.4716C224.92 25.9716 225.162 24.7244 225.645 23.7301C226.127 22.7301 226.77 21.983 227.571 21.4886C228.377 20.9886 229.261 20.7386 230.221 20.7386C230.954 20.7386 231.565 20.8636 232.054 21.1136C232.548 21.358 232.946 21.6648 233.247 22.0341C233.554 22.3977 233.787 22.7557 233.946 23.108H234.056V16.5455H237.679V34H234.099V31.9034H233.946C233.775 32.267 233.534 32.6278 233.221 32.9858C232.914 33.3381 232.514 33.6307 232.02 33.8636C231.531 34.0966 230.934 34.2131 230.23 34.2131ZM231.38 31.3239C231.966 31.3239 232.46 31.1648 232.863 30.8466C233.272 30.5227 233.585 30.071 233.801 29.4915C234.022 28.9119 234.133 28.233 234.133 27.4545C234.133 26.6761 234.025 26 233.809 25.4261C233.593 24.8523 233.281 24.4091 232.872 24.0966C232.463 23.7841 231.966 23.6278 231.38 23.6278C230.784 23.6278 230.281 23.7898 229.872 24.1136C229.463 24.4375 229.153 24.8864 228.943 25.4602C228.733 26.0341 228.627 26.6989 228.627 27.4545C228.627 28.2159 228.733 28.8892 228.943 29.4744C229.159 30.054 229.468 30.5085 229.872 30.8381C230.281 31.1619 230.784 31.3239 231.38 31.3239ZM244.397 34.2472C243.561 34.2472 242.817 34.1023 242.164 33.8125C241.51 33.517 240.993 33.0824 240.613 32.5085C240.238 31.929 240.05 31.2074 240.05 30.3438C240.05 29.6165 240.184 29.0057 240.451 28.5114C240.718 28.017 241.081 27.6193 241.542 27.3182C242.002 27.017 242.525 26.7898 243.11 26.6364C243.701 26.483 244.32 26.375 244.968 26.3125C245.729 26.233 246.343 26.1591 246.809 26.0909C247.275 26.017 247.613 25.9091 247.823 25.767C248.033 25.625 248.138 25.4148 248.138 25.1364V25.0852C248.138 24.5455 247.968 24.1278 247.627 23.8324C247.292 23.5369 246.814 23.3892 246.195 23.3892C245.542 23.3892 245.022 23.5341 244.635 23.8239C244.249 24.108 243.993 24.4659 243.868 24.8977L240.51 24.625C240.681 23.8295 241.016 23.142 241.516 22.5625C242.016 21.9773 242.661 21.5284 243.451 21.2159C244.246 20.8977 245.167 20.7386 246.212 20.7386C246.939 20.7386 247.635 20.8239 248.3 20.9943C248.971 21.1648 249.564 21.429 250.081 21.7869C250.604 22.1449 251.016 22.6051 251.317 23.1676C251.618 23.7244 251.769 24.392 251.769 25.1705V34H248.326V32.1847H248.223C248.013 32.5938 247.732 32.9545 247.38 33.267C247.027 33.5739 246.604 33.8153 246.11 33.9915C245.615 34.1619 245.044 34.2472 244.397 34.2472ZM245.436 31.7415C245.971 31.7415 246.442 31.6364 246.851 31.4261C247.26 31.2102 247.581 30.9205 247.814 30.5568C248.047 30.1932 248.164 29.7812 248.164 29.321V27.9318C248.05 28.0057 247.894 28.0739 247.695 28.1364C247.502 28.1932 247.283 28.2472 247.039 28.2983C246.794 28.3437 246.55 28.3864 246.306 28.4261C246.061 28.4602 245.84 28.4915 245.641 28.5199C245.215 28.5824 244.843 28.6818 244.525 28.8182C244.206 28.9545 243.959 29.1392 243.783 29.3722C243.607 29.5994 243.519 29.8835 243.519 30.2244C243.519 30.7188 243.698 31.0966 244.056 31.358C244.419 31.6136 244.88 31.7415 245.436 31.7415ZM259.409 34.2131C258.415 34.2131 257.515 33.9574 256.708 33.446C255.907 32.929 255.27 32.1705 254.799 31.1705C254.333 30.1648 254.1 28.9318 254.1 27.4716C254.1 25.9716 254.341 24.7244 254.824 23.7301C255.307 22.7301 255.949 21.983 256.75 21.4886C257.557 20.9886 258.441 20.7386 259.401 20.7386C260.134 20.7386 260.745 20.8636 261.233 21.1136C261.728 21.358 262.125 21.6648 262.426 22.0341C262.733 22.3977 262.966 22.7557 263.125 23.108H263.236V16.5455H266.858V34H263.279V31.9034H263.125C262.955 32.267 262.713 32.6278 262.401 32.9858C262.094 33.3381 261.694 33.6307 261.199 33.8636C260.711 34.0966 260.114 34.2131 259.409 34.2131ZM260.56 31.3239C261.145 31.3239 261.64 31.1648 262.043 30.8466C262.452 30.5227 262.765 30.071 262.98 29.4915C263.202 28.9119 263.313 28.233 263.313 27.4545C263.313 26.6761 263.205 26 262.989 25.4261C262.773 24.8523 262.461 24.4091 262.051 24.0966C261.642 23.7841 261.145 23.6278 260.56 23.6278C259.963 23.6278 259.461 23.7898 259.051 24.1136C258.642 24.4375 258.333 24.8864 258.123 25.4602C257.912 26.0341 257.807 26.6989 257.807 27.4545C257.807 28.2159 257.912 28.8892 258.123 29.4744C258.338 30.054 258.648 30.5085 259.051 30.8381C259.461 31.1619 259.963 31.3239 260.56 31.3239ZM275.758 34.2557C274.434 34.2557 273.289 33.9744 272.324 33.4119C271.363 32.8437 270.622 32.054 270.099 31.0426C269.576 30.0256 269.315 28.8466 269.315 27.5057C269.315 26.1534 269.576 24.9716 270.099 23.9602C270.622 22.9432 271.363 22.1534 272.324 21.5909C273.289 21.0227 274.434 20.7386 275.758 20.7386C277.082 20.7386 278.224 21.0227 279.184 21.5909C280.15 22.1534 280.895 22.9432 281.417 23.9602C281.94 24.9716 282.201 26.1534 282.201 27.5057C282.201 28.8466 281.94 30.0256 281.417 31.0426C280.895 32.054 280.15 32.8437 279.184 33.4119C278.224 33.9744 277.082 34.2557 275.758 34.2557ZM275.775 31.4432C276.377 31.4432 276.88 31.2727 277.284 30.9318C277.687 30.5852 277.991 30.1136 278.196 29.517C278.406 28.9205 278.511 28.2415 278.511 27.4801C278.511 26.7188 278.406 26.0398 278.196 25.4432C277.991 24.8466 277.687 24.375 277.284 24.0284C276.88 23.6818 276.377 23.5085 275.775 23.5085C275.167 23.5085 274.656 23.6818 274.241 24.0284C273.832 24.375 273.522 24.8466 273.312 25.4432C273.108 26.0398 273.005 26.7188 273.005 27.4801C273.005 28.2415 273.108 28.9205 273.312 29.517C273.522 30.1136 273.832 30.5852 274.241 30.9318C274.656 31.2727 275.167 31.4432 275.775 31.4432Z" fill="black"/>
</svg>
